<?xml version="1.0" standalone="no"?>
<!DOCTYPE svg PUBLIC "-//W3C//DTD SVG 20010904//EN"
 "http://www.w3.org/TR/2001/REC-SVG-20010904/DTD/svg10.dtd">
<svg version="1.0" xmlns="http://www.w3.org/2000/svg"
 width="225.000000pt" height="225.000000pt" viewBox="0 0 225.000000 225.000000"
 preserveAspectRatio="xMidYMid meet">

<g transform="translate(0.000000,225.000000) scale(0.100000,-0.100000)"
fill="#000000" stroke="none">
<path d="M526 1909 c-197 -87 -359 -159 -360 -161 -2 -3 59 -920 66 -987 3
-30 18 -4 125 215 66 137 214 438 327 668 113 231 205 420 204 421 -2 1 -164
-69 -362 -156z"/>
<path d="M1468 1852 c60 -119 207 -418 327 -664 121 -247 222 -448 225 -448 9
0 72 1002 63 1010 -7 7 -381 174 -583 260 -36 15 -82 35 -102 44 l-37 16 107
-218z"/>
<path d="M1083 1452 c-140 -321 -213 -491 -213 -496 0 -8 505 -8 512 0 4 3 -6
33 -22 67 -27 60 -52 117 -139 317 -23 52 -54 120 -69 152 l-27 56 -42 -96z"/>
<path d="M734 642 c-18 -11 -106 -224 -97 -232 4 -4 117 -66 249 -137 l242
-130 153 83 c85 46 198 107 251 135 l98 51 -14 31 c-7 18 -30 71 -51 120 l-39
87 -390 0 c-215 -1 -396 -4 -402 -8z"/>
</g>
</svg>
